<?xml version="1.0" standalone="no"?>
<!DOCTYPE svg PUBLIC "-//W3C//DTD SVG 20010904//EN"
 "http://www.w3.org/TR/2001/REC-SVG-20010904/DTD/svg10.dtd">
<svg version="1.0" xmlns="http://www.w3.org/2000/svg"
 width="972.000000pt" height="972.000000pt" viewBox="0 0 972.000000 972.000000"
 preserveAspectRatio="xMidYMid meet">
<metadata>
Created by potrace 1.14, written by Peter Selinger 2001-2017
</metadata>
<g transform="translate(0.000000,972.000000) scale(0.100000,-0.100000)"
fill="#000000" stroke="none">
<path d="M5060 8226 c-3 -2 -39 -7 -80 -10 -41 -3 -85 -8 -96 -10 -12 -2 -39
-7 -60 -10 -21 -4 -66 -14 -99 -22 -33 -9 -69 -18 -79 -20 -40 -8 -143 -46
-201 -74 -58 -28 -60 -28 -80 -11 -52 47 -100 53 -142 17 -23 -20 -27 -31 -26
-69 1 -36 -2 -47 -16 -52 -54 -17 -72 -86 -39 -153 l20 -43 -29 -47 c-158
-256 -213 -701 -119 -972 14 -41 14 -46 -3 -65 -111 -127 -94 -392 35 -535
l37 -40 -21 -61 c-20 -58 -21 -104 -2 -123 10 -10 57 -11 87 -1 17 6 25 1 38
-25 27 -52 100 -72 166 -45 11 4 28 -9 56 -47 46 -61 104 -123 147 -156 29
-22 29 -22 5 -23 -65 -3 -88 -8 -124 -27 -22 -11 -50 -31 -61 -44 -35 -39
-144 -206 -144 -221 0 -19 26 -40 40 -32 5 3 10 2 10 -3 0 -4 -24 -19 -52 -32
-29 -13 -82 -37 -118 -53 -74 -34 -196 -81 -504 -193 -125 -47 -344 -151 -366
-175 -3 -3 -21 -15 -40 -27 -78 -48 -205 -173 -270 -268 -126 -182 -252 -514
-405 -1064 -14 -52 -33 -120 -41 -150 -9 -30 -18 -66 -20 -80 -3 -14 -9 -39
-15 -56 -5 -17 -11 -40 -14 -50 -2 -10 -15 -68 -30 -129 -38 -158 -55 -243
-61 -300 -3 -27 -11 -64 -19 -81 -26 -55 -1 -106 59 -120 17 -4 34 -9 39 -10
4 -1 11 -2 16 -3 5 0 9 -95 8 -224 -2 -311 7 -397 57 -529 55 -148 169 -293
270 -345 79 -41 216 -55 327 -32 120 24 111 25 103 -17 -7 -36 -8 -58 -5 -96
1 -20 45 -26 56 -8 4 7 49 9 123 6 159 -7 629 -16 1137 -21 498 -6 928 -13
1080 -20 61 -2 175 -7 255 -10 80 -3 181 -8 225 -11 156 -11 225 -13 253 -5
23 7 31 5 40 -10 38 -60 73 19 47 102 -6 17 -1 19 38 19 108 0 258 80 383 204
93 93 107 155 108 481 1 173 2 180 21 181 17 1 75 7 180 19 17 2 55 6 85 10
30 3 89 10 130 15 41 5 100 12 130 15 73 7 137 15 180 20 19 3 60 7 90 10 52
5 80 8 190 20 41 5 69 8 155 21 69 10 136 38 170 71 48 46 85 131 99 223 3 19
17 100 31 180 14 80 28 160 31 179 3 18 8 43 12 55 3 11 8 320 9 684 l4 664
-128 -7 c-70 -3 -153 -8 -183 -10 -30 -2 -89 -7 -130 -10 -41 -3 -102 -8 -135
-10 -33 -3 -80 -7 -105 -10 -25 -2 -67 -7 -95 -10 -68 -7 -142 -15 -190 -20
-55 -7 -408 -55 -431 -59 -10 -2 -39 -7 -64 -11 -25 -4 -52 -9 -60 -10 -8 -1
-38 -6 -65 -9 l-50 -7 -33 71 c-18 38 -45 107 -61 153 -72 206 -112 282 -191
363 -58 60 -113 97 -208 141 -42 19 -111 51 -152 70 -95 45 -195 83 -218 83
-30 0 -44 16 -47 54 -5 44 -30 80 -70 101 -16 9 -46 24 -65 35 -19 11 -43 20
-53 20 -14 0 -18 6 -15 31 3 28 9 33 68 53 316 111 518 374 505 656 -3 73 -19
149 -39 189 -8 17 -10 40 -5 66 7 43 5 491 -4 540 -2 17 -8 57 -12 90 -4 32
-8 67 -10 76 -2 9 -6 34 -9 55 -8 50 -41 185 -60 247 -14 43 -14 49 0 54 11 4
15 19 13 57 -1 28 -6 60 -9 71 -6 15 1 28 27 54 30 29 34 39 31 71 -2 25 2 42
15 56 37 37 68 104 72 149 3 39 0 51 -23 76 -16 18 -39 32 -53 32 -24 2 -25 5
-21 47 3 38 0 49 -22 73 -24 26 -43 31 -93 27 -20 -1 -22 2 -17 28 10 48 -19
60 -171 68 -71 3 -141 7 -155 8 -14 1 -36 9 -50 18 -14 9 -47 19 -75 23 -56 7
-94 13 -145 20 -46 7 -405 17 -410 11z m3307 -5208 c-3 -8 -6 -5 -6 6 -1 11 2
17 5 13 3 -3 4 -12 1 -19z m-11 -61 c-12 -78 -17 -107 -32 -177 -2 -14 -7 -38
-9 -55 -3 -16 -7 -39 -9 -50 -3 -11 -5 -30 -5 -42 -1 -13 -5 -23 -10 -23 -5 0
0 46 10 103 10 56 26 144 36 195 16 92 31 130 19 49z"/>
</g>
</svg>
